<?xml version="1.0" encoding="utf-8"?>
<!-- Generator: Adobe Illustrator 17.0.0, SVG Export Plug-In . SVG Version: 6.00 Build 0)  -->
<!DOCTYPE svg PUBLIC "-//W3C//DTD SVG 1.1//EN" "http://www.w3.org/Graphics/SVG/1.1/DTD/svg11.dtd">
<svg version="1.1" id="Layer_1" xmlns="http://www.w3.org/2000/svg" xmlns:xlink="http://www.w3.org/1999/xlink" x="0px" y="0px"
	 width="432.979px" height="69.667px" viewBox="0 0 432.979 69.667" enable-background="new 0 0 432.979 69.667"
	 xml:space="preserve">
<g>
	<path fill="#221E1F" d="M94.69,31.937h8.09l-3.97-11.39h-0.04h-0.08L94.69,31.937z M96.32,15.977h4.94l10.2,26.5h-4.97l-2.49-7.02
		H93.42l-2.48,7.02h-4.79L96.32,15.977z"/>
	<g>
		<path fill="#221E1F" d="M112.49,23.287h4.01v2.67h0.11c1.26-1.89,2.86-3.19,5.9-3.19c2.34,0,4.53,1,5.38,3.19
			c1.41-1.96,3.23-3.19,6.02-3.19c4.04,0,6.42,1.78,6.42,6.46v13.25h-4.24v-11.21c0-3.04-0.18-5.16-3.49-5.16
			c-2.85,0-4.08,1.9-4.08,5.12v11.25h-4.22v-12.32c0-2.64-0.83-4.05-3.38-4.05c-2.19,0-4.2,1.78-4.2,4.98v11.39h-4.23
			C112.49,42.477,112.49,23.287,112.49,23.287z"/>
		<path fill="#221E1F" d="M155.94,31.196c-0.15-2.67-1.97-5.09-4.83-5.09c-2.93,0-4.93,2.22-5.04,5.09H155.94z M146.07,33.977
			c0,3,1.63,5.68,5.16,5.68c2.44,0,3.93-1.08,4.67-3.2h4.01c-0.93,4.2-4.49,6.54-8.68,6.54c-6.02,0-9.39-4.2-9.39-10.1
			c0-5.45,3.56-10.13,9.27-10.13c6.05,0,9.76,5.46,9.06,11.21H146.07z"/>
		<path fill="#221E1F" d="M162.18,23.287h3.97v3.71h0.08c0.48-2.03,3-4.23,5.6-4.23c0.96,0,1.23,0.08,1.59,0.11v4.08
			c-0.59-0.07-1.22-0.18-1.81-0.18c-2.9,0-5.19,2.34-5.19,6.57v9.13h-4.24V23.287z"/>
	</g>
	<path fill="#221E1F" d="M175.31,23.287h4.23v19.19h-4.23V23.287z M175.31,15.977h4.23v4h-4.23V15.977z"/>
	<g>
		<path fill="#221E1F" d="M195.23,29.707c-0.33-2.34-2.04-3.6-4.37-3.6c-2.19,0-5.28,1.15-5.28,6.98c0,3.19,1.41,6.57,5.09,6.57
			c2.45,0,4.16-1.64,4.56-4.38h4.23c-0.77,4.97-3.86,7.72-8.79,7.72c-6.01,0-9.32-4.27-9.32-9.91c0-5.79,3.16-10.32,9.47-10.32
			c4.45,0,8.24,2.23,8.64,6.94C199.46,29.707,195.23,29.707,195.23,29.707z"/>
		<path fill="#221E1F" d="M213.48,32.867c-1.3,0.85-3.34,0.81-5.19,1.15c-1.82,0.29-3.46,0.96-3.46,3.19c0,1.89,2.42,2.45,3.9,2.45
			c1.86,0,4.75-0.97,4.75-3.64L213.48,32.867L213.48,32.867z M217.72,38.207c0,1.04,0.21,1.45,1,1.45c0.26,0,0.59,0,1.03-0.07v2.92
			c-0.63,0.23-1.97,0.49-2.66,0.49c-1.72,0-2.94-0.6-3.27-2.34c-1.67,1.63-4.39,2.34-6.65,2.34c-3.45,0-6.57-1.86-6.57-5.61
			c0-4.78,3.83-5.57,7.39-5.97c3.05-0.56,5.75-0.22,5.75-2.71c0-2.19-2.26-2.6-3.97-2.6c-2.37,0-4.05,0.97-4.23,3.05h-4.23
			c0.3-4.94,4.49-6.39,8.72-6.39c3.75,0,7.69,1.52,7.69,5.57V38.207z"/>
		<path fill="#221E1F" d="M224.35,36.316c0.23,2.44,2.09,3.34,4.35,3.34c1.59,0,4.38-0.33,4.27-2.53c-0.12-2.22-3.2-2.48-6.28-3.19
			c-3.11-0.67-6.16-1.78-6.16-5.68c0-4.19,4.53-5.49,8.02-5.49c3.93,0,7.49,1.63,8.01,5.9h-4.41c-0.38-2-2.04-2.56-3.9-2.56
			c-1.22,0-3.49,0.3-3.49,1.97c0,2.08,3.12,2.38,6.24,3.08c3.08,0.7,6.19,1.82,6.19,5.6c0,4.57-4.6,6.24-8.56,6.24
			c-4.83,0-8.43-2.16-8.51-6.68H224.35z"/>
	</g>
	<polygon fill="#221E1F" points="240.82,15.977 247.35,15.977 254.66,36.716 254.74,36.716 261.86,15.977 268.32,15.977 
		268.32,42.477 263.91,42.477 263.91,22.026 263.82,22.026 256.48,42.477 252.66,42.477 245.31,22.026 245.23,22.026 245.23,42.477 
		240.82,42.477 	"/>
	<g>
		<path fill="#221E1F" d="M283.27,32.867c-1.3,0.85-3.34,0.81-5.2,1.15c-1.81,0.29-3.44,0.96-3.44,3.19c0,1.89,2.41,2.45,3.89,2.45
			c1.86,0,4.75-0.97,4.75-3.64V32.867z M287.5,38.207c0,1.04,0.22,1.45,1,1.45c0.27,0,0.6,0,1.04-0.07v2.92
			c-0.63,0.23-1.96,0.49-2.67,0.49c-1.71,0-2.93-0.6-3.25-2.34c-1.68,1.63-4.39,2.34-6.66,2.34c-3.46,0-6.56-1.86-6.56-5.61
			c0-4.78,3.82-5.57,7.38-5.97c3.04-0.56,5.75-0.22,5.75-2.71c0-2.19-2.26-2.6-3.96-2.6c-2.38,0-4.05,0.97-4.24,3.05h-4.23
			c0.29-4.94,4.49-6.39,8.72-6.39c3.75,0,7.68,1.52,7.68,5.57V38.207z"/>
		<path fill="#221E1F" d="M290.95,23.287h3.98v3.71H295c0.49-2.03,3.01-4.23,5.6-4.23c0.96,0,1.23,0.08,1.6,0.11v4.08
			c-0.6-0.07-1.22-0.18-1.82-0.18c-2.89,0-5.19,2.34-5.19,6.57v9.13h-4.24V23.287z"/>
		<path fill="#221E1F" d="M303.36,23.287h3.19v-5.75h4.23v5.75h3.83v3.15h-3.83v10.25c0,1.74,0.15,2.64,2.04,2.64
			c0.6,0,1.19,0,1.79-0.15v3.26c-0.93,0.07-1.82,0.22-2.75,0.22c-4.42,0-5.23-1.7-5.31-4.9v-11.32h-3.19L303.36,23.287
			L303.36,23.287z"/>
		<path fill="#7F8184" d="M348.52,17.557h-4.23l0.01,5.74h-3.19v3.15h3.18v11.31c0.08,3.19,0.89,4.89,5.31,4.89
			c0.92,0,1.81-0.14,2.74-0.22v-3.26c-0.59,0.15-1.18,0.15-1.78,0.15c-1.89,0-2.04-0.89-2.04-2.63v-10.24h3.82v-3.15h-3.82
			L348.52,17.557L348.52,17.557z M328.58,15.997l-10.15,26.47h4.78l2.48-7.01h10.57l2.48,7.01h4.97l-10.2-26.47
			C333.51,15.997,328.58,15.997,328.58,15.997z M326.94,31.937l4.01-11.38h0.12l3.96,11.38H326.94z M430.04,39.646
			c-0.79,0-1-0.41-1-1.44v-9.87c0-4.03-3.93-5.55-7.68-5.55c-4.23,0-8.42,1.45-8.71,6.37h4.23c0.18-2.07,1.85-3.03,4.22-3.03
			c1.71,0,3.97,0.4,3.97,2.59c0,2.48-2.71,2.15-5.75,2.7c-3.55,0.41-7.37,1.19-7.37,5.97c0,3.74,3.11,5.6,6.56,5.6
			c2.26,0,4.97-0.71,6.64-2.34c0.33,1.75,1.55,2.34,3.25,2.34c0.71,0,2.05-0.26,2.68-0.48v-2.93
			C430.63,39.646,430.3,39.646,430.04,39.646z M424.81,36.017c0,2.67-2.89,3.63-4.74,3.63c-1.49,0-3.89-0.56-3.9-2.44
			c0-2.23,1.64-2.9,3.45-3.19c1.85-0.34,3.89-0.3,5.19-1.15L424.81,36.017L424.81,36.017z M354.38,42.466h4.23v-26.47h-4.23V42.466z
			 M410.31,26.446v-3.15h-3.82v-5.74h-4.22v5.74h-3.19v3.15h3.19v11.31c0.08,3.19,0.89,4.89,5.3,4.89c0.93,0,1.82-0.14,2.74-0.22
			v-3.26c-0.59,0.15-1.18,0.15-1.78,0.15c-1.88,0-2.04-0.89-2.04-2.63v-10.24C406.49,26.446,410.31,26.446,410.31,26.446z
			 M390.89,22.787c-2.52,0-4.7,1.3-5.97,3.4l-0.07-0.06v-2.83h-3.99v19.17h4.21v-11.31c0-2.82,1.81-5.03,4.63-5.03
			c2.49,0,3.67,1.29,3.75,4.29v12.05h4.23l-0.01-13.16C397.68,25.006,395.04,22.787,390.89,22.787z M377.4,38.207v-9.87
			c0-4.03-3.93-5.55-7.67-5.55c-4.23,0-8.42,1.45-8.71,6.37h4.22c0.18-2.07,1.85-3.03,4.23-3.03c1.7,0,3.96,0.4,3.96,2.59
			c0,2.48-2.71,2.15-5.74,2.7c-3.56,0.41-7.38,1.19-7.38,5.97c0,3.74,3.11,5.6,6.56,5.6c2.26,0,4.97-0.71,6.64-2.34
			c0.33,1.75,1.55,2.34,3.26,2.34c0.71,0,2.04-0.26,2.67-0.48v-2.93c-0.45,0.07-0.78,0.07-1.04,0.07
			C377.62,39.646,377.4,39.236,377.4,38.207z M373.17,36.017c0,2.67-2.88,3.63-4.75,3.63c-1.48,0-3.88-0.56-3.88-2.44
			c0-2.23,1.63-2.9,3.45-3.19c1.85-0.34,3.89-0.3,5.18-1.15V36.017z"/>
		<path fill="#00ADEE" d="M44.55,59.586c3.69-2.07,7.89-2.75,9.39-1.55c1.49,1.22-0.29,3.87-3.98,5.93l0,0
			c-0.59-0.19-1.3-0.6-2.14-1.26l-0.45-0.36C46.5,61.617,45.55,60.687,44.55,59.586z"/>
		<path fill="#00ADEE" d="M37.99,51.167c9.59-5.35,20.51-7.15,24.4-4.01c2.07,1.68,1.73,4.41-0.49,7.42
			c-0.54,0.69-1.27,1.61-1.85,2.28c-1.44,1.56-1.49,1.62-2.42,2.48c-1.39,1.24-1.43,1.26-2.22,1.89c-1.36,1-1.36,1-2.09,1.48
			l-0.13,0.09c5.56-3.61,8.02-7.82,5.52-9.84c-2.76-2.24-10.52-0.96-17.33,2.84C40.28,54.387,39.14,52.836,37.99,51.167z"/>
		<path fill="#00ADEE" d="M31,40.097c13.82-7.71,29.58-10.3,35.18-5.77c1.61,1.3,2.21,3.04,1.91,5.05l-0.22,1.38
			c-0.63,2.85-0.76,3.45-1.81,6.3c1-2.49,0.7-4.68-1.15-6.18c-4.85-3.92-18.47-1.68-30.42,5C33.32,44.017,32.15,42.086,31,40.097z"
			/>
		<path fill="#00ADEE" d="M24.53,27.847c15.78-8.81,33.74-11.76,40.14-6.59c0.96,0.77,1.6,1.69,1.95,2.71
			c0.98,3.27,1.08,3.61,1.47,6.17l0.18,1.49c-0.14-1.52-0.83-2.85-2.15-3.91c-6.12-4.96-23.36-2.14-38.48,6.31
			C26.56,31.977,25.52,29.907,24.53,27.847z"/>
		<path fill="#00ADEE" d="M19.82,16.577c14.92-8.33,31.91-11.11,37.96-6.23c0.15,0.13,0.29,0.25,0.43,0.38
			c0.6,0.64,1.43,1.46,2.01,2.12c0.92,1.15,2.1,2.72,2.93,3.94c-0.34-0.55-0.8-1.06-1.36-1.51c-6.36-5.15-24.25-2.21-39.95,6.56
			C21.05,19.937,20.38,18.187,19.82,16.577z"/>
		<path fill="#00ADEE" d="M17.91,8.887c9.8-5.47,20.76-7.85,26.69-6.11c0.99,0.33,2.29,0.78,3.25,1.16
			c1.25,0.57,2.89,1.38,4.09,2.03c-6.13-3.52-20.62-0.88-33.43,6.27C18.19,10.957,17.99,9.827,17.91,8.887z"/>
		<path fill="#00ADEE" d="M18.72,5.597c1.33-0.72,1.33-0.72,2-1.03c0.59-0.27,1.39-0.62,1.98-0.86c1.37-0.52,1.37-0.52,2.07-0.74
			c1.43-0.43,1.49-0.45,2.25-0.64c1.6-0.37,1.67-0.38,2.55-0.52c1.84-0.26,1.94-0.28,3.04-0.36c2.2-0.1,2.25-0.11,3.4-0.07
			c-4.86-0.14-11.73,1.75-17.99,5.25C18.16,6.126,18.39,5.776,18.72,5.597z"/>
		<path fill="#221E1F" d="M51.28,63.946c-0.59,0.31-1.39,0.72-1.99,1.02c-0.6,0.27-1.39,0.61-1.99,0.86
			c-1.35,0.51-1.37,0.52-2.07,0.74l-1,0.31c-4.42,1.27-8.38,1.31-10.18-0.15c-2.77-2.23,0.52-7.13,7.33-10.93
			c1.1,1.41,2.16,2.69,3.17,3.79c-3.69,2.06-5.47,4.71-3.98,5.92c1.5,1.21,5.7,0.52,9.39-1.54
			C50.5,64.137,50.94,64.126,51.28,63.946z"/>
		<path fill="#221E1F" d="M28.7,67.566c-2.82-0.63-3.05-0.69-4.86-1.32c-0.87-0.3-1.62-0.69-2.23-1.19
			c-4.84-3.91,0.92-12.51,12.88-19.19c1.17,1.86,2.35,3.63,3.5,5.3c-9.59,5.35-14.22,12.25-10.33,15.39
			c1.05,0.85,2.62,1.34,4.53,1.5C31.14,67.937,29.74,67.776,28.7,67.566z"/>
		<path fill="#221E1F" d="M13.98,60.736c-0.84-0.74-1.96-1.72-2.75-2.5l-0.52-0.54c-4.91-5.19,2.39-15.54,16.93-23.66
			c1.09,2.05,2.21,4.08,3.36,6.06c-13.83,7.73-20.49,17.66-14.89,22.19c0.2,0.16,0.41,0.31,0.63,0.45
			C15.9,62.146,14.77,61.387,13.98,60.736z"/>
		<path fill="#221E1F" d="M4.57,48.557c-0.54-1.33-1.21-3.12-1.66-4.48c-1.67-5.79,5.78-14.9,18.93-22.24
			c0.48,1.12,0.99,2.31,1.55,3.53c0.37,0.82,0.75,1.65,1.14,2.47c-14.18,7.93-21.76,17.89-18.49,23.58
			C5.59,50.566,4.95,49.437,4.57,48.557z"/>
		<path fill="#221E1F" d="M2.13,28.787l0.02-0.12c0.91-4.84,6.93-11.17,16.36-16.43c0.32,1.29,0.75,2.74,1.31,4.34
			c-11.51,6.43-18.42,14.29-18.2,19.78C1.6,33.887,1.58,32.086,2.13,28.787z"/>
		<path fill="#221E1F" d="M7.28,16.137c0.57-0.81,1.36-1.87,1.97-2.65c1.91-2.29,4.91-4.71,8.77-6.86c-0.16,0.56-0.2,1.32-0.11,2.26
			c-6.88,3.84-11.63,8.34-13.36,12.15C5.53,19.046,6.12,17.836,7.28,16.137z"/>
	</g>
	<g>
		<path fill="#00ADEE" d="M65.04,58.637c0.04,0.08,0.1,0.14,0.17,0.19s0.15,0.08,0.24,0.11c0.09,0.02,0.19,0.03,0.29,0.03
			c0.06,0,0.13,0,0.21-0.01s0.15-0.04,0.22-0.07c0.06-0.03,0.12-0.07,0.16-0.13c0.05-0.05,0.07-0.12,0.07-0.21s-0.03-0.17-0.09-0.22
			c-0.06-0.06-0.13-0.11-0.23-0.15c-0.1-0.04-0.2-0.07-0.32-0.1l-0.37-0.09c-0.13-0.04-0.25-0.07-0.38-0.12
			c-0.12-0.05-0.23-0.11-0.32-0.18c-0.1-0.07-0.17-0.16-0.23-0.27s-0.09-0.25-0.09-0.4c0-0.18,0.04-0.33,0.11-0.46
			c0.08-0.13,0.17-0.23,0.29-0.32c0.13-0.09,0.26-0.15,0.42-0.19c0.15-0.04,0.3-0.06,0.45-0.06c0.18,0,0.35,0.02,0.52,0.05
			c0.16,0.05,0.31,0.11,0.44,0.2c0.12,0.09,0.22,0.2,0.3,0.34c0.07,0.14,0.11,0.31,0.11,0.5h-0.73c0-0.1-0.02-0.18-0.06-0.25
			s-0.09-0.12-0.15-0.16s-0.13-0.06-0.2-0.08c-0.08-0.01-0.17-0.02-0.26-0.02c-0.06,0-0.12,0-0.18,0.02
			c-0.06,0.01-0.12,0.03-0.16,0.06c-0.05,0.04-0.09,0.08-0.13,0.12c-0.03,0.05-0.05,0.11-0.05,0.18s0.02,0.13,0.04,0.17
			c0.03,0.04,0.08,0.08,0.16,0.11c0.07,0.04,0.17,0.07,0.3,0.11l0.52,0.13l0.27,0.07c0.11,0.03,0.22,0.09,0.34,0.16
			c0.11,0.07,0.2,0.17,0.28,0.29c0.09,0.13,0.13,0.28,0.13,0.47c0,0.16-0.04,0.31-0.09,0.44c-0.06,0.13-0.16,0.25-0.27,0.35
			c-0.12,0.09-0.27,0.17-0.45,0.22c-0.18,0.06-0.38,0.08-0.61,0.08c-0.19,0-0.37-0.02-0.55-0.07c-0.18-0.04-0.33-0.11-0.47-0.21
			c-0.13-0.1-0.24-0.23-0.32-0.38s-0.12-0.34-0.11-0.55h0.72C64.98,58.457,65,58.557,65.04,58.637z"/>
		<polygon fill="#00ADEE" points="68.63,56.066 69.42,58.407 69.43,58.407 70.19,56.066 71.24,56.066 71.24,59.477 70.54,59.477 
			70.54,57.057 70.53,57.057 69.7,59.477 69.12,59.477 68.28,57.077 68.27,57.077 68.27,59.477 67.57,59.477 67.57,56.066 		"/>
	</g>
	<path fill="#221E1F" d="M317.6,20.296h0.37c0.42,0,0.79-0.16,0.79-0.55c0-0.29-0.21-0.57-0.79-0.57c-0.16,0-0.28,0.01-0.37,0.03
		V20.296z M317.6,22.077h-0.51v-3.22c0.27-0.04,0.52-0.08,0.91-0.08c0.49,0,0.81,0.11,1,0.25s0.3,0.36,0.3,0.66
		c0,0.43-0.29,0.68-0.63,0.79v0.02c0.28,0.05,0.47,0.31,0.54,0.78c0.07,0.5,0.15,0.7,0.2,0.8h-0.54c-0.07-0.1-0.15-0.4-0.22-0.82
		c-0.08-0.41-0.28-0.57-0.69-0.57h-0.36V22.077z M318.14,17.957c-1.27,0-2.31,1.09-2.31,2.44c0,1.37,1.04,2.45,2.32,2.45
		c1.29,0.01,2.31-1.08,2.31-2.44s-1.02-2.45-2.31-2.45H318.14z M318.15,17.506c1.58,0,2.84,1.29,2.84,2.89
		c0,1.63-1.26,2.89-2.85,2.89c-1.58,0-2.86-1.26-2.86-2.89c0-1.6,1.28-2.89,2.86-2.89H318.15z"/>
</g>
</svg>
