<?xml version="1.0" encoding="utf-8"?>
<!-- Generator: Adobe Illustrator 17.0.0, SVG Export Plug-In . SVG Version: 6.00 Build 0)  -->
<!DOCTYPE svg PUBLIC "-//W3C//DTD SVG 1.1//EN" "http://www.w3.org/Graphics/SVG/1.1/DTD/svg11.dtd">
<svg version="1.1" id="Layer_1" xmlns="http://www.w3.org/2000/svg" xmlns:xlink="http://www.w3.org/1999/xlink" x="0px" y="0px"
	 width="70px" height="70px" viewBox="0 0 70 70" enable-background="new 0 0 70 70" xml:space="preserve">
<g>
	<g>
		<path fill="#00ADEE" d="M44.55,59.585c3.69-2.069,7.89-2.75,9.39-1.549c1.49,1.219-0.29,3.869-3.98,5.93l0,0
			c-0.59-0.19-1.3-0.6-2.14-1.26l-0.45-0.36C46.5,61.617,45.55,60.687,44.55,59.585z"/>
		<path fill="#00ADEE" d="M37.99,51.167c9.59-5.351,20.51-7.15,24.4-4.01c2.07,1.68,1.73,4.409-0.49,7.42
			c-0.54,0.689-1.27,1.609-1.85,2.279c-1.44,1.561-1.49,1.62-2.42,2.48c-1.39,1.24-1.43,1.26-2.22,1.89c-1.36,1-1.36,1-2.09,1.479
			l-0.13,0.09c5.56-3.609,8.02-7.819,5.52-9.84c-2.76-2.24-10.52-0.959-17.33,2.84C40.28,54.387,39.14,52.835,37.99,51.167z"/>
		<path fill="#00ADEE" d="M31,40.097c13.82-7.71,29.58-10.3,35.18-5.77c1.61,1.299,2.21,3.04,1.91,5.049l-0.22,1.381
			c-0.63,2.85-0.76,3.449-1.81,6.3c1-2.49,0.7-4.681-1.15-6.181c-4.85-3.92-18.47-1.68-30.42,5C33.32,44.017,32.15,42.085,31,40.097
			z"/>
		<path fill="#00ADEE" d="M24.53,27.847c15.78-8.81,33.74-11.76,40.14-6.59c0.96,0.77,1.6,1.69,1.95,2.71
			c0.98,3.27,1.08,3.61,1.47,6.17l0.18,1.49c-0.14-1.52-0.83-2.85-2.15-3.91c-6.12-4.96-23.36-2.14-38.48,6.31
			C26.56,31.977,25.52,29.907,24.53,27.847z"/>
		<path fill="#00ADEE" d="M19.82,16.577c14.92-8.33,31.91-11.11,37.96-6.23c0.15,0.13,0.29,0.25,0.43,0.38
			c0.6,0.64,1.43,1.46,2.01,2.12c0.92,1.15,2.1,2.72,2.93,3.94c-0.34-0.55-0.8-1.06-1.36-1.51c-6.36-5.15-24.25-2.21-39.95,6.56
			C21.05,19.937,20.38,18.187,19.82,16.577z"/>
		<path fill="#00ADEE" d="M17.91,8.887c9.8-5.47,20.76-7.85,26.69-6.11c0.99,0.33,2.29,0.78,3.25,1.16
			c1.25,0.57,2.89,1.38,4.09,2.03c-6.13-3.52-20.62-0.88-33.43,6.27C18.19,10.957,17.99,9.827,17.91,8.887z"/>
		<path fill="#00ADEE" d="M18.72,5.597c1.33-0.72,1.33-0.72,2-1.03c0.59-0.27,1.39-0.62,1.98-0.86c1.37-0.52,1.37-0.52,2.07-0.74
			c1.43-0.43,1.49-0.45,2.25-0.64c1.6-0.37,1.67-0.38,2.55-0.52c1.84-0.26,1.94-0.28,3.04-0.36c2.2-0.1,2.25-0.11,3.4-0.07
			c-4.86-0.14-11.73,1.75-17.99,5.25C18.16,6.126,18.39,5.776,18.72,5.597z"/>
		<path fill="#221E1F" d="M51.28,63.946c-0.59,0.31-1.39,0.72-1.99,1.021c-0.6,0.27-1.39,0.609-1.99,0.859
			c-1.35,0.51-1.37,0.521-2.07,0.74l-1,0.311c-4.42,1.27-8.38,1.31-10.18-0.15c-2.77-2.23,0.52-7.13,7.33-10.93
			c1.1,1.41,2.16,2.689,3.17,3.789c-3.69,2.061-5.47,4.711-3.98,5.92c1.5,1.211,5.7,0.521,9.39-1.539
			C50.5,64.137,50.94,64.126,51.28,63.946z"/>
		<path fill="#221E1F" d="M28.7,67.566c-2.82-0.63-3.05-0.689-4.86-1.32c-0.87-0.3-1.62-0.689-2.23-1.189
			c-4.84-3.91,0.92-12.51,12.88-19.189c1.17,1.859,2.35,3.629,3.5,5.299c-9.59,5.351-14.22,12.25-10.33,15.391
			c1.05,0.85,2.62,1.34,4.53,1.5C31.14,67.937,29.74,67.776,28.7,67.566z"/>
		<path fill="#221E1F" d="M13.98,60.736c-0.84-0.74-1.96-1.72-2.75-2.5l-0.52-0.54c-4.91-5.19,2.39-15.54,16.93-23.66
			c1.09,2.049,2.21,4.081,3.36,6.06c-13.83,7.729-20.49,17.659-14.89,22.19c0.2,0.159,0.41,0.31,0.63,0.449
			C15.9,62.146,14.77,61.387,13.98,60.736z"/>
		<path fill="#221E1F" d="M4.57,48.557c-0.54-1.33-1.21-3.12-1.66-4.479c-1.67-5.791,5.78-14.901,18.93-22.241
			c0.48,1.12,0.99,2.31,1.55,3.53c0.37,0.82,0.75,1.65,1.14,2.47c-14.18,7.93-21.76,17.89-18.49,23.581
			C5.59,50.566,4.95,49.437,4.57,48.557z"/>
		<path fill="#221E1F" d="M2.13,28.787l0.02-0.12c0.91-4.84,6.93-11.17,16.36-16.43c0.32,1.29,0.75,2.74,1.31,4.34
			c-11.51,6.43-18.42,14.29-18.2,19.78C1.6,33.887,1.58,32.086,2.13,28.787z"/>
		<path fill="#221E1F" d="M7.28,16.137c0.57-0.81,1.36-1.87,1.97-2.65c1.91-2.29,4.91-4.71,8.77-6.86c-0.16,0.56-0.2,1.32-0.11,2.26
			c-6.88,3.84-11.63,8.34-13.36,12.15C5.53,19.046,6.12,17.836,7.28,16.137z"/>
	</g>
</g>
</svg>
